<?xml version="1.0" encoding="utf-8"?><svg viewBox="0 0 96 96" xmlns="http://www.w3.org/2000/svg" xmlns:xlink="http://www.w3.org/1999/xlink"><style>:root>svg{display:none}:root>svg:target{display:block}</style><svg viewBox="0 0 49.652 49.652" id="common--icon__facebook" xmlns="http://www.w3.org/2000/svg"><path d="M24.826 0C11.137 0 0 11.137 0 24.826c0 13.688 11.137 24.826 24.826 24.826 13.688 0 24.826-11.138 24.826-24.826C49.652 11.137 38.516 0 24.826 0zM31 25.7h-4.039v14.396h-5.985V25.7h-2.845v-5.088h2.845v-3.291c0-2.357 1.12-6.04 6.04-6.04l4.435.017v4.939h-3.219c-.524 0-1.269.262-1.269 1.386v2.99h4.56L31 25.7z"/></svg><svg viewBox="0 0 49.652 49.652" id="common--icon__instagram" xmlns="http://www.w3.org/2000/svg"><path d="M24.825 29.796a4.978 4.978 0 0 0 4.972-4.97 4.954 4.954 0 0 0-.94-2.897 4.964 4.964 0 0 0-4.029-2.073c-1.659 0-3.126.82-4.031 2.072a4.947 4.947 0 0 0-.94 2.897 4.973 4.973 0 0 0 4.968 4.971zM35.678 18.746V13.96l-.623.002-4.164.013.016 4.787z"/><path d="M24.826 0C11.137 0 0 11.137 0 24.826c0 13.688 11.137 24.826 24.826 24.826 13.688 0 24.826-11.138 24.826-24.826C49.652 11.137 38.516 0 24.826 0zm14.119 21.929v11.56a5.463 5.463 0 0 1-5.457 5.458H16.164a5.462 5.462 0 0 1-5.457-5.458V16.165a5.462 5.462 0 0 1 5.457-5.457h17.323a5.463 5.463 0 0 1 5.458 5.457v5.764z"/><path d="M32.549 24.826c0 4.257-3.464 7.723-7.723 7.723s-7.722-3.466-7.722-7.723a7.67 7.67 0 0 1 .568-2.897h-4.215v11.56a2.706 2.706 0 0 0 2.706 2.704h17.323a2.707 2.707 0 0 0 2.706-2.704v-11.56h-4.217c.367.894.574 1.873.574 2.897z"/></svg><svg class="ccontact-phone__img" viewBox="0 0 348.077 348.077" fill="#744980" id="common--icon__tel"><path d="M340.273 275.083l-53.755-53.761c-10.707-10.664-28.438-10.34-39.518.744l-27.082 27.076a792.327 792.327 0 0 1-5.344-2.973c-17.102-9.476-40.509-22.464-65.14-47.113-24.704-24.701-37.704-48.144-47.209-65.257-1.003-1.813-1.964-3.561-2.913-5.221l18.176-18.149 8.936-8.947c11.097-11.1 11.403-28.826.721-39.521L73.39 8.194c-10.682-10.68-28.421-10.356-39.518.744l-15.15 15.237.414.411c-5.08 6.482-9.325 13.958-12.484 22.02C3.74 54.28 1.927 61.603 1.098 68.941-6 127.785 20.89 181.564 93.866 254.541c100.875 100.868 182.167 93.248 185.674 92.876 7.638-.913 14.958-2.738 22.397-5.627 7.992-3.122 15.463-7.361 21.941-12.43l.331.294 15.348-15.029c11.074-11.098 11.393-28.83.716-39.542z"/></svg><svg viewBox="0 0 96 96" id="common--icon__vkontakte" xmlns="http://www.w3.org/2000/svg"><path d="M53.174 52.908c-1.539-.896-3.678-.896-5.416-.896h-5.707v11.76h5.238c1.939 0 4.412.139 6.084-1.035 1.535-1.033 2.404-3.061 2.404-4.992 0-1.794-1.068-3.94-2.603-4.837zm-2.153-10.043c1.27-.967 1.936-2.691 1.936-4.279 0-1.725-.801-3.381-2.27-4.277-1.537-.896-4.346-.689-6.15-.689h-2.486v10.35h3.289c1.871-.001 4.078.137 5.681-1.105zM79.125 0H16.873C7.555 0 0 7.555 0 16.875v62.25C0 88.443 7.555 96 16.873 96h62.252C88.443 96 96 88.443 96 79.125v-62.25C96 7.555 88.443 0 79.125 0zM50.604 72.535H30.992V25.201H52.42c6.207 0 11.934 3.951 11.934 10.92 0 5.381-3.004 9.066-6.836 10.211v.139c5.682 1.174 9.74 4.26 9.74 11.705 0 6.89-4.692 14.359-16.654 14.359z" fill="#030104"/></svg><svg viewBox="0 0 28 28" id="index--slider-artists__img--arrow-left" xmlns="http://www.w3.org/2000/svg"><defs><path id="ea" d="M114.86 1694.54h.225c3.186-4.548 4.771-7.514 4.934-11.557-7.246 6.97-16.666 10.6-28.05 14.014 11.384 3.27 20.389 7.26 28.05 14.02-.489-4.394-1.81-7.048-5.033-11.885h-.127z"/></defs><use fill="#e8715c" xlink:href="#ea" transform="translate(-92 -1683)"/></svg><svg viewBox="0 0 28 28" id="index--slider-artists__img--arrow-right" xmlns="http://www.w3.org/2000/svg"><defs><path id="fa" d="M1085.16 1694.546h-.225c-3.178-4.538-4.76-7.498-4.923-11.532 7.23 6.956 16.629 10.577 27.987 13.983-11.358 3.262-20.343 7.244-27.987 13.989.488-4.385 1.806-7.033 5.022-11.859h.126z"/></defs><use fill="#e8715c" xlink:href="#fa" transform="translate(-1080 -1683)"/></svg><svg viewBox="0 0 28 28" id="review--arrow__link--left" xmlns="http://www.w3.org/2000/svg"><defs><path id="ga" d="M114.86 1694.54h.225c3.186-4.548 4.771-7.514 4.934-11.557-7.246 6.97-16.666 10.6-28.05 14.014 11.384 3.27 20.389 7.26 28.05 14.02-.489-4.394-1.81-7.048-5.033-11.885h-.127z"/></defs><use fill="#fdd8d5" xlink:href="#ga" transform="translate(-92 -1683)"/></svg><svg viewBox="0 0 28 28" id="review--arrow__link--right" xmlns="http://www.w3.org/2000/svg"><defs><path id="ha" d="M1085.16 1694.546h-.225c-3.178-4.538-4.76-7.498-4.923-11.532 7.23 6.956 16.629 10.577 27.987 13.983-11.358 3.262-20.343 7.244-27.987 13.989.488-4.385 1.806-7.033 5.022-11.859h.126z"/></defs><use fill="#fdd8d5" xlink:href="#ha" transform="translate(-1080 -1683)"/></svg><svg viewBox="0 0 612 612" id="review--video-camera" xmlns="http://www.w3.org/2000/svg"><path d="M573.75 267.75L459 344.25c0-23.218-10.557-43.758-26.89-57.796 38.881-23.428 65.14-65.637 65.14-114.329 0-73.938-59.938-133.875-133.875-133.875S229.5 98.188 229.5 172.125c0 37.504 15.51 71.317 40.373 95.625h-70.151c18.322-20.33 29.778-46.971 29.778-76.5 0-63.38-51.37-114.75-114.75-114.75S0 127.87 0 191.25c0 34.578 15.625 65.216 39.818 86.254C16.199 290.528 0 315.371 0 344.25v153c0 42.247 34.253 76.5 76.5 76.5h306c42.247 0 76.5-34.253 76.5-76.5l114.75 76.5c21.133 0 38.25-17.117 38.25-38.25V306c0-21.133-17.117-38.25-38.25-38.25zm-459 0c-42.247 0-76.5-34.253-76.5-76.5s34.253-76.5 76.5-76.5 76.5 34.253 76.5 76.5-34.253 76.5-76.5 76.5zm248.625.21c-52.938 0-95.835-42.917-95.835-95.835 0-52.938 42.917-95.835 95.835-95.835s95.835 42.897 95.835 95.835-42.898 95.835-95.835 95.835z" fill="#FFF"/></svg><svg viewBox="0 0 80 20" id="sprite--spite__main-picture--review" xmlns="http://www.w3.org/2000/svg"><defs><path id="ja" d="M690 463h19.75v20H690z"/><path id="jb" d="M709.75 463h19.75v20h-19.75z"/><path id="jc" d="M730.5 463h19.75v20H730.5z"/><path id="jd" d="M750.25 463H770v20h-19.75z"/></defs><use fill="#93dfc4" xlink:href="#ja" transform="translate(-690 -463)"/><use fill="#df5839" xlink:href="#jb" transform="translate(-690 -463)"/><use fill="#ffe4de" xlink:href="#jc" transform="translate(-690 -463)"/><use fill="#58937e" xlink:href="#jd" transform="translate(-690 -463)"/></svg><svg viewBox="0 0 79 20" id="sprite--sprite__main-page" xmlns="http://www.w3.org/2000/svg"><defs><path id="ka" d="M240 981h19.75v20H240z"/><path id="kb" d="M259.75 981h19.75v20h-19.75z"/><path id="kc" d="M279.5 981h19.75v20H279.5z"/><path id="kd" d="M299.25 981H319v20h-19.75z"/></defs><use fill="#93dfc4" xlink:href="#ka" transform="translate(-240 -981)"/><use fill="#df5839" xlink:href="#kb" transform="translate(-240 -981)"/><use fill="#ffe4de" xlink:href="#kc" transform="translate(-240 -981)"/><use fill="#58937e" xlink:href="#kd" transform="translate(-240 -981)"/></svg><svg viewBox="0 0 79 20" id="sprite--sprite__main-picture--works" xmlns="http://www.w3.org/2000/svg"><defs><path id="la" d="M690 363h19.75v20H690z"/><path id="lb" d="M709.75 363h19.75v20h-19.75z"/><path id="lc" d="M729.5 363h19.75v20H729.5z"/><path id="ld" d="M749.25 363H769v20h-19.75z"/></defs><use fill="#e7d752" xlink:href="#la" transform="translate(-690 -363)"/><use fill="#66723e" xlink:href="#lb" transform="translate(-690 -363)"/><use fill="#ffe4de" xlink:href="#lc" transform="translate(-690 -363)"/><use fill="#81b0d5" xlink:href="#ld" transform="translate(-690 -363)"/></svg><svg viewBox="0 0 79 20" id="sprite--sprite__works-img" xmlns="http://www.w3.org/2000/svg"><defs><path id="ma" d="M560 702h19.75v20H560z"/><path id="mb" d="M579.75 702h19.75v20h-19.75z"/><path id="mc" d="M599.5 702h19.75v20H599.5z"/><path id="md" d="M619.25 702H639v20h-19.75z"/></defs><use fill="#93dfc4" xlink:href="#ma" transform="translate(-560 -702)"/><use fill="#df5839" xlink:href="#mb" transform="translate(-560 -702)"/><use fill="#ffe4de" xlink:href="#mc" transform="translate(-560 -702)"/><use fill="#58937e" xlink:href="#md" transform="translate(-560 -702)"/></svg></svg>