<svg xmlns="http://www.w3.org/2000/svg"><defs><path id="a" d="M114.86 1694.54h.225c3.186-4.548 4.771-7.514 4.934-11.557-7.246 6.97-16.666 10.6-28.05 14.014 11.384 3.27 20.389 7.26 28.05 14.02-.489-4.394-1.81-7.048-5.033-11.885h-.127z"/><path id="b" d="M1085.16 1694.546h-.225c-3.178-4.538-4.76-7.498-4.923-11.532 7.23 6.956 16.629 10.577 27.987 13.983-11.358 3.262-20.343 7.244-27.987 13.989.488-4.385 1.806-7.033 5.022-11.859h.126z"/><path id="c" d="M690 463h19.75v20H690z"/><path id="d" d="M709.75 463h19.75v20h-19.75z"/><path id="e" d="M730.5 463h19.75v20H730.5z"/><path id="f" d="M750.25 463H770v20h-19.75z"/><path id="g" d="M240 981h19.75v20H240z"/><path id="h" d="M259.75 981h19.75v20h-19.75z"/><path id="i" d="M279.5 981h19.75v20H279.5z"/><path id="j" d="M299.25 981H319v20h-19.75z"/><path id="k" d="M690 363h19.75v20H690z"/><path id="l" d="M709.75 363h19.75v20h-19.75z"/><path id="m" d="M729.5 363h19.75v20H729.5z"/><path id="n" d="M749.25 363H769v20h-19.75z"/><path id="o" d="M560 702h19.75v20H560z"/><path id="p" d="M579.75 702h19.75v20h-19.75z"/><path id="q" d="M599.5 702h19.75v20H599.5z"/><path id="r" d="M619.25 702H639v20h-19.75z"/></defs></svg>